<?xml version="1.0" encoding="utf-8"?>
<!-- Generator: Adobe Illustrator 16.0.4, SVG Export Plug-In . SVG Version: 6.00 Build 0)  -->
<!DOCTYPE svg PUBLIC "-//W3C//DTD SVG 1.1//EN" "http://www.w3.org/Graphics/SVG/1.1/DTD/svg11.dtd">
<svg version="1.1" xmlns="http://www.w3.org/2000/svg" xmlns:xlink="http://www.w3.org/1999/xlink" x="0px" y="0px" width="400px"
	 height="400px" viewBox="0 0 400 400" enable-background="new 0 0 400 400" xml:space="preserve">
<g id="Fondo" display="none">
	<rect display="inline" fill-rule="evenodd" clip-rule="evenodd" fill="#434343" width="400" height="400"/>
</g>
<g id="Icons">
	<path fill-rule="evenodd" clip-rule="evenodd" fill="#B8E2F7" d="M203.025,232.365c-16.553,0-33.107,0-49.66,0
		c-13.268,0-23.157-8.879-24.477-22.113c-0.366-3.666-0.408-7.363,0.261-11.029c1.884-10.313,8.142-16.669,18.079-19.25
		c2.708-0.703,3.331-1.947,3.686-4.329c1.654-11.086,6.454-20.253,16.618-25.876c11.594-6.415,33.419-6.331,43.181,5.628
		c1.228,1.505,1.939,0.5,2.91-0.136c10.833-7.101,24.623-5.891,33.543,2.839c5.086,4.978,6.83,11.172,6.328,17.979
		c-0.179,2.412,0.562,2.738,2.54,3.097c12.938,2.351,21.354,13.153,21.696,27.659c0.273,11.524-8.433,22.44-19.996,25.154
		c-1.486,0.349-2.96,0.374-4.451,0.375C236.53,232.366,219.778,232.365,203.025,232.365z M206.19,157.842
		c-8.371-8.464-26.272-10.009-37.373-3.029c-9.756,6.134-12.829,15.802-13.547,26.557c-0.124,1.86-0.473,2.479-2.466,2.6
		c-5.213,0.314-9.89,2.125-13.638,5.956c-5.028,5.139-5.926,11.536-5.523,18.284c0.701,11.765,8.743,19.364,20.414,19.367
		c32.51,0.005,65.02-0.037,97.53,0.027c8.327,0.018,14.246-3.942,18.446-10.72c6.861-11.071,1.014-32.799-19.175-33.524
		c-3.824-0.137-3.824-0.126-2.93-3.656c3.53-13.944-7.353-25.944-21.714-24.064c-6.408,0.839-11.286,4.115-15.64,9.379
		C209.244,162.211,208.128,159.801,206.19,157.842z"/>
	<g>
		<path fill-rule="evenodd" clip-rule="evenodd" fill="#384850" d="M51.357,256.214c-6.642,0.006-13.285,0.021-19.926,0.01
			c-1.46-0.004-2.931,0.152-4.38-0.112c-2.546-0.466-4.42-2.659-4.524-5.251c-0.007-0.18-0.008-0.36-0.008-0.54
			c0-14.815,0.023-29.631-0.019-44.446c-0.009-3.189,2.109-5.267,4.239-5.785c0.549-0.134,1.105-0.194,1.671-0.194
			c10.177,0.002,20.354-0.002,30.532,0.005c3.35,0.002,5.779,2.442,5.79,5.802c0.009,2.746,0.002,5.493,0.002,8.239
			c-0.034,0.03-0.065,0.081-0.102,0.086c-1.376,0.181-2.752,0.26-4.125-0.045c-0.246-0.312-0.195-0.684-0.196-1.039
			c-0.006-2.297,0.001-4.594-0.005-6.892c-0.004-1.238-0.394-1.649-1.627-1.746c-0.269-0.021-0.54-0.015-0.81-0.015
			c-9.504,0-19.007,0-28.511,0.001c-0.405,0-0.811-0.011-1.211,0.068c-0.799,0.157-1.124,0.521-1.175,1.323
			c-0.016,0.248-0.009,0.496-0.009,0.742c0,13.04,0,26.079,0,39.118c0,1.776,0.301,2.089,2.075,2.09
			c6.801,0.006,13.602,0.001,20.403,0.006c0.4,0,0.813-0.063,1.192,0.14c0.278,0.266,0.23,0.615,0.233,0.944
			c0.009,1.408,0.021,2.817-0.002,4.224c-0.015,0.863,0.105,1.69,0.408,2.497C51.363,255.687,51.503,255.938,51.357,256.214z"/>
		<path fill-rule="evenodd" clip-rule="evenodd" fill="#E28839" d="M60.528,213.942c1.402,0,2.804,0,4.206-0.002
			c2.745,0.012,5.49,0.016,8.236,0.035c2.906,0.021,5.152,1.806,5.729,4.56c0.091,0.435,0.095,0.894,0.095,1.342
			c0.005,11.097,0.007,22.192,0.003,33.287c-0.001,3.489-2.41,5.887-5.903,5.89c-5.199,0.004-10.398-0.054-15.597,0.024
			c-2.519,0.039-4.536-0.712-5.939-2.864c-0.599-1.214-0.745-2.502-0.708-3.842c0.043-1.52-0.003-3.041-0.01-4.562
			c-0.229-0.267-0.186-0.593-0.187-0.903c-0.004-9.074-0.015-18.149,0.003-27.225c0.007-3.315,2.356-5.68,5.866-5.932
			c1.189-0.086,2.386-0.026,3.579-0.018C60.131,213.735,60.35,213.779,60.528,213.942z"/>
		<path fill-rule="evenodd" clip-rule="evenodd" fill="#BDDDF4" d="M60.528,213.942c-1.618,0.107-3.242-0.084-4.857,0.102
			c-2.899,0.335-5.003,2.673-5.006,5.595c-0.009,8.13-0.002,16.259-0.005,24.389c0,1.261-0.013,2.522-0.02,3.783
			c-7.382,0.002-14.765,0.005-22.147,0.003c-1.341,0-1.761-0.436-1.761-1.793c-0.001-13.369-0.001-26.739,0-40.108
			c0-1.361,0.405-1.786,1.766-1.786c10.083-0.006,20.167-0.004,30.25-0.001c1.353,0.001,1.779,0.44,1.78,1.782
			C60.528,208.586,60.528,211.264,60.528,213.942z"/>
		<path fill-rule="evenodd" clip-rule="evenodd" fill="#778F9B" d="M42.22,253.399c-1.213,0-2.426-0.018-3.638,0.008
			c-0.453,0.011-0.655-0.104-0.623-0.595c0.038-0.582,0.019-1.167,0.005-1.751c-0.008-0.321,0.066-0.499,0.442-0.497
			c2.538,0.01,5.075,0.01,7.613,0c0.37-0.002,0.457,0.163,0.448,0.491c-0.015,0.605-0.025,1.213,0.003,1.817
			c0.021,0.422-0.144,0.54-0.546,0.533C44.69,253.387,43.456,253.399,42.22,253.399z"/>
		<path fill-rule="evenodd" clip-rule="evenodd" fill="#FEF2E0" d="M74.598,235.146c0,5.043,0.001,10.085,0,15.128
			c0,1.347-0.422,1.763-1.78,1.763c-5.38,0.001-10.76,0.001-16.14,0c-1.369-0.002-1.807-0.446-1.807-1.837
			c0-10.039,0-20.079,0-30.118c0-1.438,0.406-1.844,1.839-1.844c5.358-0.001,10.715-0.001,16.073,0c1.453,0,1.814,0.368,1.815,1.85
			C74.599,225.106,74.598,230.126,74.598,235.146z"/>
		<path fill-rule="evenodd" clip-rule="evenodd" fill="#A5652A" d="M64.772,257.59c-1.279,0.001-2.041-0.823-2.108-2.105
			c-0.063-1.212,1.087-2.055,2.032-2.083c1.147-0.034,2.192,0.997,2.176,2.116C66.858,256.467,66.022,257.732,64.772,257.59z"/>
	</g>
	<g>
		<path fill-rule="evenodd" clip-rule="evenodd" fill="#EEC74A" d="M122.175,350.738c-8.126,0-16.252,0.002-24.378-0.003
			c-2.417-0.001-4.045-1.616-4.054-4.006c-0.007-2.203-0.009-4.405,0-6.607c0.01-2.349,1.549-3.935,3.882-3.944
			c4.704-0.021,9.407-0.008,14.11-0.009c5.075,0,10.151,0,15.227,0c4.92,0,9.841,0,14.762,0c1.517,0,3.041,0.088,4.549-0.02
			c2.494-0.18,4.44,1.487,4.389,4.457c-0.035,2.042-0.062,4.084-0.088,6.127c-0.031,2.458-1.575,4.003-4.022,4.004
			C138.427,350.739,130.301,350.738,122.175,350.738z"/>
		<path fill-rule="evenodd" clip-rule="evenodd" fill="#BD3F27" d="M122.688,318.164c-8.093,0-16.186,0-24.28-0.001
			c-2.531,0-4.126-1.58-4.135-4.101c-0.007-2.14-0.01-4.28-0.005-6.419c0.007-2.488,1.569-4.075,4.059-4.076
			c16.156-0.008,32.312,0.022,48.466-0.032c2.669-0.008,4.503,1.841,4.347,4.397c-0.117,1.916-0.019,3.844-0.018,5.767
			c0.002,2.983-1.464,4.463-4.433,4.464C138.688,318.165,130.688,318.164,122.688,318.164z"/>
		<path fill-rule="evenodd" clip-rule="evenodd" fill="#45B29B" d="M122.406,334.461c-3.375,0-6.75,0.004-10.126-0.001
			c-2.816-0.004-5.633-0.017-8.45-0.025c-1.92-0.007-3.841-0.008-5.761-0.021c-2.452-0.016-4.042-1.514-4.097-3.959
			c-0.05-2.231-0.04-4.467,0.008-6.699c0.05-2.349,1.703-3.917,4.06-3.918c16.25-0.002,32.5-0.003,48.75,0.001
			c2.464,0,4.074,1.601,4.092,4.07c0.017,2.171,0.016,4.343,0,6.513c-0.017,2.383-1.579,3.976-3.959,3.985
			c-4.953,0.021-9.907,0.008-14.86,0.009c-3.219,0-6.438,0-9.657,0C122.406,334.432,122.406,334.446,122.406,334.461z"/>
		<path fill-rule="evenodd" clip-rule="evenodd" fill="#344E5D" d="M122.516,359.479c-1.922,0-3.845-0.021-5.768,0.013
			c-0.587,0.01-0.835-0.123-0.805-0.762c0.048-1.021,0.039-2.048,0.001-3.069c-0.02-0.546,0.19-0.687,0.702-0.675
			c1.302,0.027,2.605-0.012,3.906,0.018c0.526,0.012,0.717-0.167,0.697-0.692c-0.031-0.836,0.014-1.675-0.017-2.511
			c-0.017-0.493,0.168-0.648,0.648-0.634c2.367,0.074,1.926-0.345,1.94,1.855c0.013,1.963-0.009,1.965,1.906,1.972
			c0.899,0.004,1.8,0.026,2.697-0.015c0.544-0.024,0.691,0.18,0.673,0.696c-0.034,0.99-0.044,1.985,0.006,2.976
			c0.032,0.641-0.154,0.855-0.82,0.84c-1.921-0.043-3.845-0.015-5.768-0.015C122.516,359.477,122.516,359.478,122.516,359.479z"/>
		<path fill-rule="evenodd" clip-rule="evenodd" fill="#344E5D" d="M104.419,358.708c-3.004,0-6.008,0.003-9.012-0.002
			c-1.212-0.002-1.855-0.982-1.376-2.074c0.208-0.474,0.555-0.698,1.09-0.697c6.256,0.008,12.511,0.001,18.767,0.012
			c0.806,0.001,1.261,0.557,1.24,1.405c-0.021,0.859-0.508,1.35-1.418,1.354c-2.664,0.012-5.327,0.004-7.99,0.004
			C105.286,358.709,104.853,358.709,104.419,358.708z"/>
		<path fill-rule="evenodd" clip-rule="evenodd" fill="#344E5D" d="M140.813,358.766c-3.004,0-6.009,0.003-9.013-0.003
			c-1.069-0.002-1.545-0.443-1.542-1.392c0.003-0.925,0.514-1.376,1.574-1.376c6.04-0.002,12.08-0.005,18.119-0.002
			c1.082,0,1.52,0.423,1.514,1.417c-0.005,0.939-0.4,1.347-1.358,1.349c-3.097,0.008-6.195,0.003-9.292,0.003
			C140.813,358.763,140.813,358.764,140.813,358.766z"/>
		<path fill-rule="evenodd" clip-rule="evenodd" fill="#EAEDED" d="M116.17,345.554c-6.141,0-12.282,0.003-18.424-0.001
			c-1.348-0.002-1.407-0.072-1.409-1.44c-0.001-0.559,0.003-1.117,0.006-1.676c0.006-1.324,0.064-1.388,1.354-1.389
			c4.528-0.004,9.057-0.007,13.585-0.007c7.816,0,15.632,0.002,23.448,0.007c1.308,0.001,1.429,0.131,1.433,1.443
			c0.001,0.62-0.027,1.241,0.004,1.859c0.045,0.868-0.308,1.219-1.201,1.215C128.701,345.543,122.436,345.554,116.17,345.554z"/>
		<path fill-rule="evenodd" clip-rule="evenodd" fill="#EAEDED" d="M140.615,341.963c0.925,0.006,1.686,0.765,1.655,1.649
			c-0.03,0.861-0.761,1.55-1.653,1.558c-0.93,0.008-1.66-0.729-1.633-1.651C139.011,342.615,139.701,341.956,140.615,341.963z"/>
		<path fill-rule="evenodd" clip-rule="evenodd" fill="#EAEDED" d="M145.568,341.969c0.909,0.012,1.593,0.689,1.597,1.579
			c0.004,0.881-0.78,1.638-1.676,1.617c-0.883-0.02-1.608-0.737-1.607-1.593C143.884,342.682,144.646,341.956,145.568,341.969z"/>
		<path fill-rule="evenodd" clip-rule="evenodd" fill="#EAEDED" d="M116.741,308.458c6.174,0,12.349,0,18.523,0.001
			c1.292,0,1.344,0.053,1.375,1.376c0.014,0.62,0.029,1.241,0.025,1.861c-0.008,1.142-0.157,1.295-1.288,1.296
			c-6.609,0.003-13.218,0-19.827,0c-5.771,0-11.542,0.002-17.313,0.001c-1.301-0.001-1.363-0.065-1.375-1.374
			c-0.006-0.589-0.006-1.179-0.004-1.769c0.004-1.306,0.086-1.392,1.36-1.392C104.392,308.457,110.566,308.458,116.741,308.458z"/>
		<path fill-rule="evenodd" clip-rule="evenodd" fill="#EAEDEC" d="M147.696,310.992c-0.003,0.89-0.766,1.622-1.676,1.608
			c-0.868-0.012-1.593-0.718-1.616-1.575c-0.025-0.893,0.714-1.646,1.626-1.654C146.938,309.362,147.699,310.104,147.696,310.992z"
			/>
		<path fill-rule="evenodd" clip-rule="evenodd" fill="#EAEDEC" d="M142.74,310.988c-0.006,0.962-0.689,1.624-1.657,1.606
			c-0.901-0.018-1.568-0.705-1.562-1.609c0.007-0.943,0.714-1.627,1.666-1.609C142.096,309.393,142.747,310.068,142.74,310.988z"/>
		<path fill-rule="evenodd" clip-rule="evenodd" fill="#EAEDED" d="M116.438,329.313c-6.2-0.001-12.4,0-18.6-0.002
			c-1.03-0.001-1.268-0.234-1.276-1.242c-0.006-0.682-0.008-1.364-0.003-2.047c0.008-1.072,0.241-1.313,1.312-1.314
			c5.053-0.004,10.106-0.002,15.159-0.002c7.285,0,14.57-0.001,21.854,0.001c1.363,0,1.494,0.133,1.498,1.482
			c0.002,0.65-0.029,1.303,0.003,1.952c0.042,0.841-0.346,1.179-1.163,1.173c-2.108-0.014-4.216,0-6.324,0
			C124.747,329.315,120.592,329.314,116.438,329.313z"/>
		<path fill-rule="evenodd" clip-rule="evenodd" fill="#E8EDED" d="M142.515,327.248c0.015,0.886-0.753,1.671-1.637,1.676
			c-0.857,0.003-1.649-0.802-1.649-1.677c0-0.83,0.745-1.584,1.601-1.621C141.695,325.59,142.5,326.364,142.515,327.248z"/>
		<path fill-rule="evenodd" clip-rule="evenodd" fill="#E9EEEE" d="M147.394,327.241c0.014,0.903-0.72,1.677-1.598,1.684
			c-0.875,0.008-1.615-0.757-1.618-1.672c-0.003-0.854,0.713-1.6,1.559-1.627C146.638,325.599,147.38,326.321,147.394,327.241z"/>
	</g>
	<g>
		<path fill-rule="evenodd" clip-rule="evenodd" fill="#2D3F50" d="M207.804,356.479c-0.01-0.274-0.026-0.548-0.026-0.822
			c-0.001-10.849-0.001-21.696-0.001-32.545c0-1.761,0.576-2.336,2.338-2.336c15.242,0,30.484,0,45.727,0
			c1.763,0,2.339,0.575,2.339,2.336c0,10.849,0,21.696-0.001,32.545c0,0.274-0.018,0.548-0.025,0.822
			C241.37,356.479,224.587,356.479,207.804,356.479z M241.001,324.093c-0.229-0.007-0.457-0.021-0.686-0.021
			c-9.473-0.001-18.943,0.01-28.416-0.021c-0.732-0.002-0.842,0.228-0.841,0.884c0.021,9.632,0.015,19.264,0.015,28.896
			c0,0.137,0.013,0.276-0.002,0.411c-0.043,0.374,0.141,0.468,0.482,0.461c0.777-0.018,1.555-0.004,2.333-0.006
			c4.461-0.008,8.922-0.016,13.383-0.024c0.114,0.008,0.228,0.023,0.342,0.023c8.88,0.001,17.761-0.006,26.641,0.017
			c0.616,0.001,0.638-0.271,0.638-0.738c-0.01-6.637-0.006-13.274-0.006-19.911c0-3.112-0.002-6.226,0.001-9.338
			c0-0.352,0.054-0.666-0.497-0.663C249.926,324.087,245.464,324.086,241.001,324.093z M233.301,322.362
			c-0.04-0.192-0.159-0.335-0.401-0.326c-0.237,0.009-0.376,0.144-0.376,0.381c-0.001,0.273,0.163,0.413,0.429,0.392
			C233.189,322.789,233.299,322.631,233.301,322.362z"/>
		<path fill-rule="evenodd" clip-rule="evenodd" fill="#C0C5C8" d="M207.804,356.479c16.783,0,33.566,0,50.35,0
			c1.829,0.001,3.658,0.015,5.488-0.005c0.441-0.005,0.568,0.126,0.596,0.577c0.146,2.483-0.567,3.312-3.162,3.305
			c-19.006-0.047-38.012-0.025-57.018-0.025c-1.699,0-2.463-0.761-2.463-2.455c-0.001-1.394-0.001-1.393,1.406-1.394
			C204.601,356.481,206.202,356.479,207.804,356.479z M232.898,357.301c-9.839,0-19.677,0-29.515,0
			c-0.206,0-0.412,0.003-0.618,0.004c-0.218,0-0.312,0.1-0.353,0.323c-0.236,1.252,0.271,1.884,1.541,1.884
			c19.311,0,38.621,0,57.932,0c0.16,0,0.321,0.009,0.48-0.007c0.783-0.076,1.075-0.59,1.046-1.691
			c-0.022-0.837-0.64-0.498-0.999-0.498C252.575,357.297,242.737,357.301,232.898,357.301z"/>
		<path fill-rule="evenodd" clip-rule="evenodd" fill="#4798C7" d="M227.27,354.673c-4.461,0.009-8.922,0.017-13.383,0.024
			c-0.778,0.002-1.556-0.012-2.333,0.006c-0.342,0.007-0.525-0.087-0.482-0.461c0.015-0.135,0.002-0.274,0.002-0.411
			c0-9.632,0.006-19.264-0.015-28.896c-0.001-0.656,0.108-0.886,0.841-0.884c9.473,0.03,18.943,0.02,28.416,0.021
			c0.229,0,0.457,0.014,0.686,0.021c-0.783,1.749-1.558,3.501-2.35,5.245c-1.422,3.138-2.861,6.269-4.283,9.406
			c-1.9,4.197-3.809,8.393-5.678,12.604C228.202,352.448,227.595,353.501,227.27,354.673z"/>
		<path fill-rule="evenodd" clip-rule="evenodd" fill="#2A81B9" d="M227.27,354.673c0.325-1.172,0.933-2.225,1.421-3.325
			c1.869-4.211,3.777-8.406,5.678-12.604c1.422-3.138,2.861-6.269,4.283-9.406c0.792-1.744,1.566-3.496,2.35-5.245
			c4.463-0.007,8.925-0.006,13.387-0.03c0.551-0.003,0.497,0.312,0.497,0.663c-0.003,3.112-0.001,6.226-0.001,9.338
			c0,6.637-0.004,13.274,0.006,19.911c0,0.468-0.021,0.739-0.638,0.738c-8.88-0.022-17.761-0.016-26.641-0.017
			C227.497,354.696,227.384,354.681,227.27,354.673z"/>
		<path fill-rule="evenodd" clip-rule="evenodd" fill="#4798C7" d="M233.301,322.362c-0.002,0.269-0.111,0.427-0.349,0.446
			c-0.266,0.021-0.43-0.118-0.429-0.392c0-0.237,0.139-0.372,0.376-0.381C233.142,322.027,233.261,322.17,233.301,322.362z"/>
		<path fill-rule="evenodd" clip-rule="evenodd" fill="#EBEFF0" d="M232.898,357.301c9.839,0,19.677-0.004,29.515,0.015
			c0.359,0,0.977-0.339,0.999,0.498c0.029,1.102-0.263,1.615-1.046,1.691c-0.159,0.016-0.32,0.007-0.48,0.007
			c-19.311,0-38.621,0-57.932,0c-1.27,0-1.777-0.632-1.541-1.884c0.041-0.224,0.135-0.323,0.353-0.323
			c0.206-0.001,0.412-0.004,0.618-0.004C213.222,357.301,223.06,357.301,232.898,357.301z"/>
	</g>
	<g>
		<path fill-rule="evenodd" clip-rule="evenodd" d="M308.482,256.147c1.981,0,3.853,0,5.818,0c0,1.188,0,2.331,0,3.702
			c1.726-0.134,3.354-0.184,4.961-0.402c2.794-0.381,5.423-1.317,7.962-2.541c4.563-2.2,9.169-2.22,13.728-0.016
			c3.787,1.832,7.739,2.883,11.957,2.869c0.243-0.001,0.487-0.007,0.729-0.019c0.056-0.003,0.109-0.04,0.263-0.103
			c0-1.1,0-2.242,0-3.463c1.991,0,3.884,0,5.896,0c-0.062,2.765,0.333,5.541-0.792,8.188c-0.13,0.306-0.285,0.608-0.472,0.882
			c-1.016,1.496-2.418,1.532-3.313-0.047c-0.508-0.898-1.096-1.098-2.021-1.053c-1.366,0.067-2.74,0.054-4.109,0.01
			c-3.302-0.105-5.797,1.361-7.456,4.093c-0.949,1.562-1.634,3.32-2.217,5.063c-0.648,1.938-1.411,2.656-3.461,2.662
			c-1.369,0.002-2.739,0.014-4.109-0.012c-1.46-0.025-2.48-0.811-2.854-2.229c-0.515-1.956-1.206-3.828-2.35-5.51
			c-1.799-2.646-4.201-4.162-7.499-4.068c-1.612,0.047-3.229-0.023-4.841,0.035c-0.332,0.012-0.695,0.316-0.965,0.57
			c-0.259,0.242-0.383,0.621-0.622,0.891c-0.867,0.981-1.995,0.941-2.78-0.115c-0.322-0.435-0.621-0.912-0.813-1.416
			C308.134,261.541,308.5,258.859,308.482,256.147z"/>
		<path fill-rule="evenodd" clip-rule="evenodd" d="M358.271,295.152c0,1.34,0.009,2.68-0.003,4.018
			c-0.011,1.219-0.496,1.691-1.728,1.717c-0.335,0.006-0.67,0.01-1.005-0.002c-1.139-0.041-1.63-0.553-1.656-1.715
			c-0.068-3.012,0.047-6.041-0.244-9.029c-0.677-6.949-3.568-12.963-8.273-18.092c-0.554-0.604-0.541-0.987-0.066-1.52
			c0.223-0.249,0.424-0.52,0.653-0.763c1.402-1.479,2.097-1.449,3.403,0.086C355.56,277.146,358.508,285.588,358.271,295.152z"/>
		<path fill-rule="evenodd" clip-rule="evenodd" d="M323.432,271.319c-1.431,1.958-2.921,3.771-4.165,5.739
			c-3.22,5.09-4.729,10.699-4.739,16.715c-0.003,1.766,0.005,3.533-0.004,5.299c-0.006,1.307-0.517,1.809-1.834,1.816
			c-0.426,0.002-0.854,0.016-1.277-0.029c-0.776-0.082-1.24-0.553-1.264-1.314c-0.212-6.881,0.017-13.691,2.896-20.143
			c1.692-3.787,3.911-7.205,6.657-10.302c0.421-0.476,0.81-0.54,1.346-0.264C322.179,269.422,322.913,270.363,323.432,271.319z"/>
		<path fill-rule="evenodd" clip-rule="evenodd" fill="#594A42" d="M334.199,278.926c2.102,0,4.202-0.002,6.304,0
			c1.119,0.002,1.292,0.162,1.294,1.242c0.005,2.832-0.019,5.664,0.013,8.494c0.01,0.881-0.355,1.184-1.2,1.18
			c-4.323-0.018-8.647-0.018-12.972,0.004c-0.837,0.004-1.225-0.283-1.217-1.168c0.028-2.861,0.029-5.725,0-8.586
			c-0.009-0.877,0.35-1.188,1.201-1.176C329.814,278.947,332.007,278.926,334.199,278.926z M339.604,284.398
			c0.029-1.523-1.146-2.758-2.657-2.791c-1.536-0.033-2.775,1.117-2.829,2.627c-0.054,1.523,1.189,2.838,2.71,2.863
			C338.313,287.121,339.575,285.895,339.604,284.398z M331.946,283.031c0-0.646,0-1.283,0-1.9c-1.126,0-2.168,0-3.212,0
			c0,0.672,0,1.264,0,1.9C329.793,283.031,330.787,283.031,331.946,283.031z"/>
		<path fill-rule="evenodd" clip-rule="evenodd" fill="#92278F" d="M311.398,253.217c-3.807,0.002-7.613,0.01-11.42-0.003
			c-1.389-0.005-2.211-0.604-2.453-1.717c-0.264-1.21,0.469-2.368,1.686-2.603c0.414-0.08,0.849-0.074,1.273-0.074
			c7.279-0.004,14.558-0.005,21.835,0c0.424,0,0.859,0.01,1.27,0.1c1.029,0.227,1.713,1.177,1.65,2.221
			c-0.064,1.07-0.818,1.903-1.875,2.035c-0.391,0.049-0.79,0.039-1.186,0.039C318.585,253.218,314.991,253.217,311.398,253.217z"/>
		<path fill-rule="evenodd" clip-rule="evenodd" fill="#92278F" d="M356.87,253.223c-3.776,0-7.554,0.006-11.33-0.004
			c-1.457-0.004-2.353-0.686-2.52-1.859c-0.171-1.209,0.565-2.25,1.767-2.469c0.327-0.059,0.666-0.071,0.999-0.071
			c7.37-0.003,14.741-0.003,22.111,0.003c0.394,0,0.796,0.014,1.179,0.094c1.03,0.215,1.75,1.16,1.708,2.186
			c-0.044,1.033-0.822,1.909-1.856,2.068c-0.27,0.041-0.546,0.043-0.819,0.043c-3.746,0.002-7.492,0.002-11.238,0.002
			C356.87,253.217,356.87,253.22,356.87,253.223z"/>
		<path fill-rule="evenodd" clip-rule="evenodd" d="M314.222,245.895c-1.889,0-3.775,0-5.661,0c-0.063-1.61,1.163-2.852,2.774-2.872
			C312.976,243.001,314.199,244.191,314.222,245.895z"/>
		<path fill-rule="evenodd" clip-rule="evenodd" d="M359.696,245.903c-1.933,0-3.8,0-5.665,0c-0.042-1.642,1.145-2.847,2.766-2.87
			C358.472,243.01,359.685,244.178,359.696,245.903z"/>
		<path fill-rule="evenodd" clip-rule="evenodd" fill="#FFFFFF" d="M339.604,284.398c-0.028,1.496-1.29,2.723-2.776,2.699
			c-1.521-0.025-2.764-1.34-2.71-2.863c0.054-1.51,1.293-2.66,2.829-2.627C338.457,281.641,339.633,282.875,339.604,284.398z"/>
		<path fill-rule="evenodd" clip-rule="evenodd" fill="#FFFFFF" d="M331.946,283.031c-1.159,0-2.153,0-3.212,0
			c0-0.637,0-1.229,0-1.9c1.044,0,2.086,0,3.212,0C331.946,281.748,331.946,282.385,331.946,283.031z"/>
	</g>
	<g>
		<path fill-rule="evenodd" clip-rule="evenodd" fill="#3BC6F0" d="M79.534,95.638c2.274,0.217,4.415,0.826,6.3,2.168
			c3.356,2.392,5.145,5.665,5.275,9.77c0.079,2.498,0.126,5.004-0.106,7.501c-0.021,0.036-0.055,0.07-0.061,0.108
			c-0.936,5.844-6.182,10.292-12.362,10.158c-3.784-0.083-7.571-0.016-11.357-0.016c-0.293,0-0.57-0.002-0.844,0.171
			c-1.669,1.055-3.351,2.093-5.028,3.135c-0.879,0.535-1.757,1.072-2.639,1.603c-0.172,0.104-0.359,0.283-0.565,0.09
			c-0.182-0.168-0.028-0.353,0.035-0.522c0.577-1.556,1.146-3.115,1.744-4.662c0.145-0.374,0.097-0.524-0.295-0.677
			c-2.516-0.977-4.461-2.649-5.902-4.926c-0.657-1.038-1.061-2.184-1.464-3.332c-0.09-0.601-0.207-1.199-0.265-1.803
			c-0.213-2.246-0.096-4.5-0.086-6.749c0.006-1.347,0.249-2.676,0.726-3.947c1.856-4.944,6.326-8.049,11.616-8.059
			C69.348,95.642,74.441,95.642,79.534,95.638z M81.336,114.345c2.163,0.017,3.88-1.652,3.894-3.788
			c0.016-2.152-1.667-3.89-3.787-3.914c-2.112-0.023-3.883,1.7-3.914,3.808C77.498,112.575,79.212,114.328,81.336,114.345z
			 M61.633,114.345c2.147,0.004,3.865-1.692,3.874-3.824c0.007-2.108-1.738-3.87-3.842-3.877c-2.127-0.007-3.853,1.712-3.86,3.845
			C57.798,112.635,59.491,114.34,61.633,114.345z M71.478,114.345c2.158,0.014,3.88-1.664,3.894-3.793
			c0.014-2.144-1.673-3.88-3.797-3.908c-2.104-0.028-3.885,1.712-3.904,3.813C67.65,112.595,69.351,114.331,71.478,114.345z"/>
		<path fill-rule="evenodd" clip-rule="evenodd" fill="#CECECD" d="M61.351,128.634c1.676-1.042,3.358-2.081,5.027-3.135
			c0.274-0.173,0.551-0.171,0.844-0.171c3.786,0,7.573-0.067,11.357,0.016c6.18,0.133,11.426-4.314,12.362-10.158
			c0.006-0.039,0.041-0.072,0.061-0.108c0.259,1.876,0.311,3.762,0.293,5.654c-0.034,3.675-0.802,7.199-2.145,10.604
			c-1.742,4.416-4.405,8.215-7.909,11.396c-4.275,3.88-9.261,6.381-14.95,7.494c-2.727,0.532-5.476,0.631-8.216,0.452
			c-3.514-0.23-6.896-1.11-10.132-2.549c-3.999-1.78-7.423-4.333-10.395-7.52c-0.256-0.275-0.475-0.586-0.71-0.88
			c1.626,0.422,3.288,0.375,4.946,0.37c2.397-0.007,4.794,0.004,7.191-0.008c0.374-0.002,0.687,0.083,1.004,0.282
			c1.889,1.181,3.786,2.347,5.686,3.51c0.181,0.11,0.359,0.365,0.611,0.176c0.262-0.196,0.051-0.429-0.021-0.627
			c-0.41-1.146-0.818-2.294-1.264-3.427c-0.146-0.369-0.059-0.513,0.29-0.647c1.48-0.573,2.733-1.485,3.747-2.698
			c1.398-1.67,2.281-3.561,2.29-5.787C61.419,130.126,61.366,129.38,61.351,128.634z"/>
		<path fill-rule="evenodd" clip-rule="evenodd" fill="#CECECD" d="M79.534,95.638c-5.093,0.004-10.186,0.004-15.278,0.014
			c-5.29,0.01-9.76,3.115-11.616,8.059c-0.478,1.271-0.72,2.6-0.726,3.947c-0.01,2.249-0.127,4.502,0.086,6.749
			c0.058,0.604,0.175,1.203,0.265,1.803c-0.596,0.009-1.191,0.019-1.788,0.027c-0.083-0.013-0.166-0.037-0.248-0.037
			c-3.741,0.002-7.483-0.039-11.223,0.028c-2.362,0.043-4.385,1.028-6.114,2.624c-1.583,1.461-2.48,3.303-2.968,5.369
			c-0.418-2.438-0.367-4.889-0.165-7.342c0.248-3.01,0.981-5.9,2.125-8.694c1.261-3.078,2.986-5.861,5.146-8.388
			c2.755-3.222,6.039-5.761,9.829-7.638c2.972-1.473,6.114-2.389,9.405-2.857c2.18-0.31,4.367-0.336,6.538-0.194
			c3.513,0.23,6.902,1.079,10.132,2.527C75.303,92.696,77.514,94.006,79.534,95.638z"/>
		<path fill-rule="evenodd" clip-rule="evenodd" fill="#EF3F3E" d="M29.923,124.221c0.488-2.066,1.385-3.908,2.968-5.369
			c1.729-1.596,3.751-2.581,6.114-2.624c3.74-0.067,7.482-0.025,11.223-0.028c0.083,0,0.166,0.024,0.248,0.037
			c0.261,1.689,0.996,3.188,1.91,4.6c1.262,1.949,2.939,3.471,4.953,4.62c0.243,0.139,0.431,0.269,0.298,0.582
			c-0.325,0.768-0.519,1.588-0.94,2.317c-0.014-0.146-0.031-0.291-0.043-0.438c-0.133-1.634-1.484-2.908-3.096-2.917
			c-1.539-0.008-2.918,1.209-3.075,2.716c-0.179,1.708,0.866,3.141,2.527,3.458c1.215,0.23,2.168-0.276,3.007-1.088
			c0.071,0.271-0.089,0.485-0.18,0.718c-0.361,0.93-0.226,1.487,0.496,2.073c0.514,0.417,1.035,0.355,1.851-0.144
			c1.037-0.634,2.022-1.354,3.132-1.863c-0.008,2.227-0.891,4.117-2.289,5.787c-1.014,1.212-2.267,2.125-3.747,2.698
			c-0.349,0.135-0.436,0.279-0.29,0.647c0.446,1.133,0.854,2.28,1.264,3.427c0.071,0.199,0.283,0.432,0.021,0.627
			c-0.251,0.189-0.43-0.065-0.611-0.176c-1.9-1.163-3.797-2.329-5.686-3.51c-0.317-0.199-0.63-0.284-1.004-0.282
			c-2.397,0.012-4.794,0-7.191,0.008c-1.659,0.005-3.32,0.052-4.946-0.37c-1.815-0.64-3.421-1.592-4.68-3.082
			c-1.509-1.788-2.312-3.854-2.349-6.182C29.777,128.383,29.702,126.298,29.923,124.221z M34.553,128.16
			c0.013,1.699,1.404,3.081,3.099,3.078c1.716-0.003,3.113-1.422,3.098-3.149c-0.014-1.684-1.418-3.076-3.109-3.084
			C35.933,124.997,34.54,126.42,34.553,128.16z M48.702,128.1c-0.012-1.684-1.41-3.082-3.099-3.097
			c-1.704-0.017-3.105,1.404-3.099,3.142c0.006,1.702,1.388,3.087,3.085,3.091C47.302,131.241,48.713,129.819,48.702,128.1z"/>
		<path fill-rule="evenodd" clip-rule="evenodd" fill="#FFFFFF" d="M81.336,114.345c-2.124-0.017-3.838-1.77-3.807-3.894
			c0.031-2.107,1.802-3.831,3.914-3.808c2.12,0.023,3.803,1.761,3.787,3.914C85.216,112.692,83.499,114.362,81.336,114.345z"/>
		<path fill-rule="evenodd" clip-rule="evenodd" fill="#FFFFFF" d="M61.633,114.345c-2.143-0.005-3.835-1.71-3.829-3.857
			c0.007-2.133,1.733-3.852,3.86-3.845c2.104,0.007,3.85,1.77,3.842,3.877C65.499,112.653,63.78,114.349,61.633,114.345z"/>
		<path fill-rule="evenodd" clip-rule="evenodd" fill="#FFFFFF" d="M71.478,114.345c-2.126-0.014-3.827-1.75-3.808-3.888
			c0.019-2.101,1.801-3.841,3.904-3.813c2.124,0.028,3.811,1.764,3.797,3.908C75.358,112.681,73.636,114.359,71.478,114.345z"/>
		<path fill-rule="evenodd" clip-rule="evenodd" fill="#BA3330" d="M56.698,128.355c0.421-0.729,0.615-1.549,0.94-2.317
			c0.132-0.313-0.055-0.443-0.298-0.582c-2.014-1.149-3.691-2.671-4.953-4.62c-0.914-1.412-1.649-2.91-1.91-4.6
			c0.596-0.009,1.192-0.018,1.788-0.027c0.403,1.148,0.807,2.294,1.464,3.332c1.44,2.277,3.386,3.949,5.902,4.926
			c0.392,0.152,0.44,0.303,0.295,0.677c-0.599,1.547-1.167,3.105-1.744,4.662c-0.063,0.169-0.217,0.354-0.035,0.522
			c0.207,0.193,0.393,0.014,0.565-0.09c0.882-0.531,1.76-1.068,2.639-1.603c0.016,0.746,0.069,1.492-0.031,2.236
			c-1.111,0.509-2.097,1.229-3.133,1.863c-0.815,0.499-1.336,0.561-1.851,0.144c-0.722-0.586-0.857-1.144-0.496-2.073
			c0.09-0.233,0.251-0.446,0.18-0.718C56.349,129.549,56.562,128.967,56.698,128.355z"/>
		<path fill-rule="evenodd" clip-rule="evenodd" fill="#FFFEFE" d="M34.553,128.16c-0.013-1.74,1.38-3.163,3.088-3.155
			c1.69,0.008,3.095,1.4,3.109,3.084c0.016,1.727-1.382,3.146-3.098,3.149C35.957,131.241,34.566,129.859,34.553,128.16z"/>
		<path fill-rule="evenodd" clip-rule="evenodd" fill="#FFFEFE" d="M48.702,128.1c0.012,1.719-1.4,3.141-3.113,3.136
			c-1.697-0.004-3.079-1.389-3.085-3.091c-0.006-1.738,1.395-3.159,3.099-3.142C47.292,125.018,48.69,126.416,48.702,128.1z"/>
		<path fill-rule="evenodd" clip-rule="evenodd" fill="#FFFEFE" d="M56.698,128.355c-0.137,0.612-0.35,1.193-0.679,1.73
			c-0.839,0.812-1.792,1.319-3.007,1.088c-1.661-0.316-2.706-1.749-2.527-3.458c0.157-1.506,1.536-2.724,3.075-2.716
			c1.612,0.009,2.963,1.283,3.096,2.917C56.667,128.064,56.684,128.21,56.698,128.355z"/>
	</g>
	<g>
		<path fill-rule="evenodd" clip-rule="evenodd" fill="#1C75BC" d="M351.348,118.384c0.427,0.076,0.852,0.167,1.281,0.223
			c2.12,0.275,4.143,0.886,6.111,1.705c2.085,0.868,3.998,2.036,5.723,3.469c1.183,0.983,2.24,2.128,3.288,3.261
			c1.545,1.673,2.719,3.603,3.664,5.672c0.825,1.803,1.457,3.675,1.781,5.628c0.249,1.5,0.367,3.022,0.549,4.584
			c-1.622,0-3.141,0-4.689,0c-0.086-5.831-2.252-10.788-6.518-14.732c-4.088-3.778-9.024-5.597-14.573-5.249
			c-11.221,0.704-19.365,9.983-18.922,20.942c0.38,9.372,8.038,18.863,19.997,19.046c0,1.515,0,3.032,0,4.499
			c-0.836,0-1.684,0.092-2.502-0.021c-1.332-0.185-2.659-0.448-3.964-0.778c-1.995-0.505-3.867-1.318-5.672-2.326
			c-1.949-1.089-3.719-2.423-5.252-4c-1.323-1.362-2.47-2.921-3.529-4.504c-1.621-2.417-2.628-5.115-3.17-7.978
			c-0.162-0.862-0.303-1.728-0.454-2.592c0-1.548,0-3.097,0-4.645c0.038-0.076,0.1-0.149,0.108-0.229
			c0.086-0.682,0.109-1.376,0.249-2.045c0.722-3.433,1.987-6.633,4.052-9.502c1.318-1.833,2.81-3.504,4.556-4.921
			c1.768-1.436,3.679-2.668,5.799-3.551c1.777-0.74,3.597-1.325,5.504-1.619c0.647-0.1,1.292-0.224,1.938-0.337
			C348.25,118.384,349.798,118.384,351.348,118.384z"/>
		<path fill-rule="evenodd" clip-rule="evenodd" fill="#27AAE1" d="M382.565,173.402c0,1.559-1.516,3.064-3.084,3.064
			c-8.322,0-16.646-0.011-24.969,0.009c-1.642,0.005-3.206-1.522-3.21-3.208c-0.01-6.36-0.003-12.72-0.005-19.08
			c0-0.664,0.231-1.23,0.698-1.697c2.201-2.203,4.402-4.406,6.607-6.605c0.467-0.465,1.039-0.687,1.701-0.687
			c6.342,0.001,12.683-0.004,19.024,0.004c1.73,0.002,3.247,1.525,3.241,3.232 M378.008,149.758
			c-0.114-0.012-0.187-0.025-0.26-0.025c-5.399-0.001-10.799-0.005-16.199,0.01c-0.209,0.001-0.466,0.131-0.619,0.283
			c-1.588,1.563-3.151,3.149-4.738,4.713c-0.262,0.258-0.369,0.513-0.369,0.882c0.013,5.23,0.008,10.459,0.008,15.689
			c0,0.199,0,0.398,0,0.596c7.438,0,14.795,0,22.178,0"/>
		<path fill-rule="evenodd" clip-rule="evenodd" fill="#00AEEF" d="M366.934,142.942c-1.504,0-3.009,0-4.549,0
			c-0.164-4.674-2.112-8.408-5.979-11.079c-2.521-1.741-5.377-2.533-8.391-2.23c-7.901,0.794-12.715,7.306-12.277,14.153
			c0.422,6.614,5.796,12.337,13.297,12.455c0,1.531,0,3.063,0,4.597c-10.038-0.075-18.648-8.297-17.828-19.412
			c0.66-8.959,8.402-17.221,19.461-16.316C360.005,125.873,366.928,133.708,366.934,142.942z"/>
		<path fill-rule="evenodd" clip-rule="evenodd" fill="#009444" d="M360.224,142.946c-1.496,0-3.001,0-4.544,0
			c-0.039-2.082-0.87-3.806-2.426-5.128c-1.339-1.136-2.954-1.681-4.701-1.517c-3.636,0.341-6.319,3.3-6.137,6.975
			c0.164,3.326,2.822,6.174,6.621,6.282c0,1.531,0,3.064,0,4.549c-3.578,0.015-6.49-1.437-8.735-4.148
			c-1.95-2.355-2.728-5.155-2.418-8.175c0.548-5.321,4.642-9.471,10.005-10.008c3.265-0.326,6.209,0.593,8.676,2.863
			C358.986,136.87,360.204,139.622,360.224,142.946z"/>
		<path fill-rule="evenodd" clip-rule="evenodd" fill="#1C75BC" d="M366.915,165.285c-1.304,0-2.605-0.011-3.908,0.006
			c-0.477,0.007-0.68-0.167-0.677-0.658c0.013-2.548,0.004-5.096,0.008-7.645c0.001-0.591,0.173-0.763,0.764-0.764
			c2.549-0.003,5.098,0.005,7.646-0.007c0.492-0.002,0.66,0.201,0.657,0.678c-0.012,2.567-0.014,5.134,0.001,7.701
			c0.004,0.512-0.186,0.706-0.697,0.697C369.444,165.271,368.179,165.285,366.915,165.285z"/>
	</g>
	<g>
		<g>
			<path fill-rule="evenodd" clip-rule="evenodd" fill="#FFF200" d="M268.028,73.944c2.814-4.091,5.847-8.686,8.692-12.821
				c0.677,0.422,1.754,0.087,2.481,0.542c-2.893,4.214-6.449,9.654-9.304,13.812c3.011,3.815,2.786,9.016-1.111,12.261
				c-3.19,2.657-8.009,2.497-11.059-0.321c-3.106-2.87-3.653-7.485-1.332-10.99C258.357,73.466,262.895,71.145,268.028,73.944z
				 M261.362,77.636c-0.962-0.024-1.739,0.693-1.788,1.653c-0.053,1.023,0.68,1.808,1.711,1.832c1.012,0.023,1.741-0.644,1.785-1.63
				C263.115,78.471,262.371,77.664,261.362,77.636z"/>
			<path fill-rule="evenodd" clip-rule="evenodd" fill="#FBB040" d="M293.033,49.529c-0.247-0.477-0.419-0.809-0.66-1.275
				c3.192-1.414,6.349-2.812,9.306-4.121c0.059-1.116-0.032-2.076,0.185-2.967c0.501-2.061,2.292-3.364,4.447-3.409
				c2.158-0.044,4.005,1.207,4.673,3.168c0.646,1.891-0.062,3.991-1.738,5.156c-1.717,1.194-4.103,1.243-5.699-0.094
				c-0.757-0.632-1.294-0.536-2.056-0.192C298.716,47.047,295.922,48.258,293.033,49.529z"/>
			<path fill-rule="evenodd" clip-rule="evenodd" fill="#FFFFFF" d="M306.031,69.628c0.019,1.489-1.239,2.766-2.74,2.783
				c-1.502,0.019-2.771-1.225-2.79-2.729c-0.017-1.511,1.201-2.741,2.734-2.761C304.756,66.902,306.013,68.119,306.031,69.628z"/>
			<path fill-rule="evenodd" clip-rule="evenodd" fill="#FFFFFF" d="M281.753,50.492c-0.024,1.136-0.908,1.993-2.049,1.988
				c-1.11-0.005-2.034-0.92-2.041-2.02c-0.006-1.139,0.985-2.098,2.128-2.058C280.911,48.443,281.778,49.367,281.753,50.492z"/>
			<path fill-rule="evenodd" clip-rule="evenodd" fill="#FFFFFF" d="M261.362,77.636c1.009,0.027,1.753,0.835,1.708,1.855
				c-0.044,0.986-0.773,1.653-1.785,1.63c-1.031-0.024-1.764-0.809-1.711-1.832C259.623,78.33,260.4,77.612,261.362,77.636z"/>
			<path fill-rule="evenodd" clip-rule="evenodd" fill="#BE1E2D" d="M277.562,45.073c5.64-3.497,11.009-1.493,13.693,1.546
				c3.124,3.535,3.494,8.858,0.752,12.78c1.734,2.014,4.442,5.188,6.096,7.107c-0.593,0.711-1.406,0.895-2.035,1.647
				c-1.765-2.034-4.123-4.67-5.906-6.727c-2.638,2.005-5.577,2.78-8.845,2.062c-2.389-0.523-4.298-1.779-5.827-3.682
				c-2.973-3.697-3.081-9.544,0.924-13.77c-1.162-2.084-2.792-4.894-3.996-7.052c0.416-0.235,0.695-0.419,1.163-0.685
				C274.734,40.335,276.395,43.014,277.562,45.073z M281.753,50.492c0.025-1.125-0.842-2.049-1.962-2.089
				c-1.143-0.04-2.134,0.919-2.128,2.058c0.007,1.1,0.931,2.015,2.041,2.02C280.845,52.485,281.729,51.627,281.753,50.492z"/>
			<path fill-rule="evenodd" clip-rule="evenodd" fill="#F26522" d="M276.721,33.456c0.02,3.51-2.846,6.376-6.364,6.365
				c-3.446-0.011-6.279-2.878-6.268-6.344c0.012-3.471,2.853-6.319,6.304-6.316C273.851,27.164,276.701,30,276.721,33.456z"/>
			<path fill-rule="evenodd" clip-rule="evenodd" fill="#71C384" d="M293.126,74.807c0.028-6.059,5.047-11.099,10.993-11.041
				c6.332,0.063,11.304,4.974,11.272,11.133c-0.031,6.138-5.075,11.152-11.191,11.126C298.065,86,293.098,80.968,293.126,74.807z
				 M306.031,69.628c-0.019-1.51-1.275-2.727-2.796-2.707c-1.533,0.02-2.751,1.25-2.734,2.761c0.019,1.505,1.288,2.748,2.79,2.729
				C304.792,72.394,306.05,71.118,306.031,69.628z"/>
		</g>
		<path fill-rule="evenodd" clip-rule="evenodd" fill="#FFFFFF" d="M308.35,44.432c-0.01,0.429-0.344,0.753-0.774,0.751
			c-0.42-0.002-0.769-0.348-0.771-0.763c-0.002-0.431,0.372-0.793,0.805-0.777C308.031,43.658,308.358,44.006,308.35,44.432z"/>
		<path fill-rule="evenodd" clip-rule="evenodd" fill="#FFFFFF" d="M267.857,30.959c-0.01,0.429-0.344,0.753-0.775,0.751
			c-0.419-0.002-0.769-0.347-0.771-0.763c-0.002-0.431,0.372-0.792,0.805-0.777C267.538,30.185,267.866,30.534,267.857,30.959z"/>
	</g>
	<g>
		<g>
			<path fill-rule="evenodd" clip-rule="evenodd" fill="#808080" d="M183.029,36.912c0.003,2.572,0.005,5.145,0.012,7.716
				c0.001,0.53,0.005,1.057,0.087,1.588c0.153,0.989-0.226,1.825-0.901,2.535c-1.118,1.176-2.532,1.863-4.051,2.308
				c-5.72,1.671-11.396,1.653-16.979-0.598c-1.033-0.416-1.969-1.022-2.685-1.901c-0.614-0.755-0.949-1.591-0.677-2.59
				c0.057-0.208,0.034-0.439,0.034-0.661c0.002-2.793,0.001-5.587,0.001-8.416c2.169,2.688,5.263,3.188,8.355,3.533
				c3.802,0.425,7.611,0.364,11.372-0.474c1.367-0.305,2.672-0.777,3.864-1.543c0.625-0.399,1.038-1.007,1.581-1.482L183.029,36.912
				z"/>
			<path fill-rule="evenodd" clip-rule="evenodd" fill="#808080" d="M154.434,54.934c0,2.331,0.003,4.459-0.002,6.586
				c-0.001,0.645-0.441,1.051-0.867,1.432c-1.204,1.079-2.675,1.635-4.214,2.003c-3.724,0.892-7.5,0.944-11.292,0.613
				c-2.059-0.18-4.085-0.53-5.985-1.392c-0.461-0.209-0.908-0.461-1.333-0.737c-1.004-0.652-1.588-1.474-1.505-2.796
				c0.114-1.833,0.029-3.678,0.029-5.582c1.951,2.502,4.754,3.072,7.581,3.456c3.995,0.54,7.998,0.484,11.964-0.34
				c0.845-0.176,1.67-0.426,2.469-0.765C152.492,56.899,153.603,56.25,154.434,54.934z"/>
			<path fill-rule="evenodd" clip-rule="evenodd" fill="#808080" d="M187.412,62.568c-0.008-0.038-0.027-0.068-0.06-0.087
				c-0.167-0.607-0.062-1.229-0.069-1.844c-0.018-1.66-0.006-3.32-0.006-5.048c2.015,2.556,4.895,3.104,7.788,3.479
				c3.884,0.502,7.777,0.445,11.635-0.346c0.998-0.205,1.972-0.497,2.899-0.927c1.092-0.505,2.104-1.116,2.847-2.182
				c0,0.208,0,0.415,0,0.623c0,1.795-0.029,3.592,0.016,5.387c0.016,0.685-0.219,1.195-0.682,1.65
				c-1.16,1.142-2.603,1.764-4.146,2.116c-5.396,1.233-10.796,1.267-16.158-0.175c-1.57-0.421-3.039-1.116-4.02-2.529
				C187.431,62.655,187.425,62.608,187.412,62.568z"/>
			<path fill-rule="evenodd" clip-rule="evenodd" fill="#808080" d="M154.433,46.376c0,2.325-0.001,4.65,0,6.977
				c0,0.517-0.332,0.855-0.656,1.184c-1.248,1.259-2.838,1.881-4.519,2.228c-5.452,1.121-10.893,1.195-16.274-0.429
				c-1.262-0.381-2.406-1.007-3.29-2.028c-0.303-0.35-0.445-0.729-0.44-1.206c0.021-2.215,0.009-4.431,0.009-6.812
				c1.156,2.405,3.302,3.187,5.484,3.896c1.202,0.391,2.446,0.614,3.7,0.754c3.827,0.429,7.603,0.228,11.281-1.007
				c1.009-0.338,1.972-0.781,2.844-1.401C153.359,47.973,154.025,47.314,154.433,46.376z"/>
			<path fill-rule="evenodd" clip-rule="evenodd" fill="#808080" d="M187.276,46.976c0.631,1.306,1.697,2.098,2.917,2.717
				c2.744,1.392,5.705,1.848,8.734,1.95c3.233,0.109,6.404-0.248,9.447-1.431c0.725-0.28,1.415-0.626,2.061-1.058
				c0.857-0.574,1.568-1.275,2.01-2.274c0,0.757,0,1.515,0,2.272c0,1.396-0.045,2.794,0.018,4.187
				c0.035,0.82-0.289,1.402-0.859,1.909c-1.243,1.106-2.742,1.706-4.334,2.039c-5.318,1.111-10.63,1.156-15.9-0.301
				c-1.309-0.362-2.519-0.961-3.487-1.96c-0.416-0.431-0.634-0.899-0.622-1.537C187.301,51.319,187.276,49.148,187.276,46.976z"/>
			<path fill-rule="evenodd" clip-rule="evenodd" fill="#808080" d="M183.041,20.026c0,2.303-0.005,4.606,0.003,6.911
				c0.002,0.521-0.311,0.864-0.632,1.194c-1.22,1.257-2.802,1.831-4.442,2.237c-3.232,0.799-6.524,0.89-9.831,0.724
				c-2.217-0.111-4.41-0.38-6.518-1.118c-1.178-0.411-2.285-0.953-3.164-1.879c-0.396-0.418-0.607-0.873-0.599-1.479
				c0.031-2.206,0.012-4.413,0.012-6.763c0.924,2.109,2.666,3.009,4.553,3.621c5.636,1.832,11.27,1.812,16.835-0.296
				C180.843,22.579,182.28,21.706,183.041,20.026z"/>
			<path fill-rule="evenodd" clip-rule="evenodd" fill="#808080" d="M141.217,49.804c-2.067-0.034-4.641-0.35-7.05-1.501
				c-0.683-0.327-1.318-0.728-1.829-1.296c-0.939-1.046-0.929-2.251,0.051-3.262c1.187-1.226,2.727-1.78,4.332-2.159
				c3.938-0.927,7.851-0.86,11.708,0.439c0.969,0.326,1.876,0.786,2.643,1.479c1.296,1.175,1.303,2.608-0.005,3.777
				c-1.312,1.174-2.941,1.673-4.611,2.054C144.918,49.688,143.354,49.811,141.217,49.804z"/>
			<path fill-rule="evenodd" clip-rule="evenodd" fill="#808080" d="M199.981,50.336c-2.564-0.031-4.971-0.309-7.255-1.261
				c-0.966-0.402-1.882-0.895-2.538-1.748c-0.739-0.961-0.721-1.981,0.069-2.906c0.927-1.084,2.178-1.651,3.505-2.038
				c4.395-1.28,8.769-1.244,13.095,0.323c0.771,0.278,1.486,0.682,2.113,1.226c1.467,1.271,1.438,2.815-0.084,4.04
				c-1.146,0.922-2.494,1.408-3.896,1.759c-0.662,0.166-1.34,0.286-2.016,0.394C201.945,50.289,200.904,50.302,199.981,50.336z"/>
		</g>
		<path fill-rule="evenodd" clip-rule="evenodd" fill="#808080" d="M169.823,22.855c-2.067-0.033-4.641-0.349-7.05-1.501
			c-0.683-0.326-1.318-0.727-1.828-1.295c-0.94-1.047-0.929-2.251,0.05-3.262c1.187-1.225,2.728-1.781,4.332-2.159
			c3.938-0.928,7.851-0.86,11.708,0.438c0.969,0.327,1.876,0.787,2.643,1.481c1.296,1.173,1.303,2.607-0.005,3.776
			c-1.312,1.174-2.942,1.673-4.611,2.054C173.525,22.739,171.961,22.863,169.823,22.855z"/>
		<path fill-rule="evenodd" clip-rule="evenodd" fill="#808080" d="M212.7,64.018c0.004,2.572,0.006,5.145,0.013,7.717
			c0.001,0.53,0.005,1.056,0.088,1.588c0.152,0.988-0.227,1.825-0.902,2.535c-1.117,1.176-2.531,1.863-4.051,2.308
			c-5.72,1.671-11.396,1.652-16.979-0.599c-1.032-0.417-1.969-1.021-2.685-1.901c-0.614-0.754-0.949-1.591-0.677-2.59
			c0.057-0.208,0.034-0.439,0.035-0.66c0.002-2.795,0.001-5.588,0.001-8.417c2.17,2.688,5.263,3.188,8.355,3.534
			c3.802,0.423,7.612,0.364,11.372-0.475c1.367-0.304,2.672-0.777,3.863-1.543c0.625-0.4,1.038-1.006,1.581-1.482L212.7,64.018z"/>
		<path fill-rule="evenodd" clip-rule="evenodd" fill="#808080" d="M158.003,35.683c-0.007-0.039-0.027-0.068-0.06-0.087
			c-0.167-0.608-0.063-1.229-0.069-1.844c-0.017-1.66-0.006-3.321-0.006-5.047c2.015,2.554,4.895,3.104,7.788,3.478
			c3.885,0.503,7.777,0.446,11.634-0.345c1-0.205,1.973-0.497,2.9-0.927c1.092-0.506,2.104-1.116,2.847-2.182
			c0,0.207,0,0.415,0,0.623c0,1.795-0.029,3.592,0.016,5.387c0.017,0.686-0.218,1.195-0.681,1.65
			c-1.161,1.141-2.604,1.763-4.148,2.116c-5.395,1.232-10.795,1.267-16.158-0.174c-1.569-0.422-3.039-1.118-4.02-2.529
			C158.023,35.769,158.018,35.723,158.003,35.683z"/>
		<path fill-rule="evenodd" clip-rule="evenodd" fill="#808080" d="M154.423,63.466c0.004,2.571,0.006,5.144,0.013,7.716
			c0.001,0.53,0.005,1.057,0.087,1.588c0.153,0.988-0.226,1.825-0.901,2.535c-1.118,1.176-2.531,1.864-4.051,2.308
			c-5.72,1.671-11.396,1.652-16.979-0.598c-1.032-0.417-1.969-1.022-2.685-1.902c-0.614-0.754-0.949-1.591-0.677-2.589
			c0.056-0.208,0.034-0.439,0.034-0.66c0.002-2.795,0.001-5.588,0.001-8.418c2.169,2.689,5.262,3.188,8.355,3.534
			c3.802,0.424,7.611,0.364,11.372-0.474c1.367-0.305,2.672-0.778,3.864-1.543c0.624-0.4,1.038-1.007,1.581-1.483L154.423,63.466z"
			/>
		
			<line fill="#808080" stroke="#343434" stroke-width="1.3192" stroke-miterlimit="10" x1="146.667" y1="42.723" x2="158.541" y2="33.159"/>
		
			<line fill="#808080" stroke="#343434" stroke-width="1.3192" stroke-miterlimit="10" x1="194.257" y1="42.723" x2="182.384" y2="33.159"/>
		
			<line fill="#808080" stroke="#343434" stroke-width="1.3192" stroke-miterlimit="10" x1="154.434" y1="59.433" x2="187.256" y2="59.433"/>
	</g>
	<g>
		<circle fill="none" stroke="#8DC63F" stroke-width="0.681" stroke-miterlimit="10" cx="334.115" cy="241.955" r="1.985"/>
		<circle fill="none" stroke="#8DC63F" stroke-width="1.2219" stroke-miterlimit="10" cx="334.115" cy="241.955" r="3.562"/>
	</g>
</g>
<g id="Circulo" display="none">
	
		<circle display="inline" fill-rule="evenodd" clip-rule="evenodd" fill="none" stroke="#3D3D3D" stroke-miterlimit="10" cx="202.356" cy="188.944" r="151.031"/>
</g>
<g id="Conexiones">
	<line fill="none" stroke="#8DC63F" stroke-miterlimit="10" x1="170.845" y1="79.378" x2="170.845" y2="148.221"/>
	<line fill="none" stroke="#8DC63F" stroke-miterlimit="10" x1="241.001" y1="116.077" x2="241.001" y2="154.107"/>
	<line fill="none" stroke="#8DC63F" stroke-miterlimit="10" x1="241.001" y1="116.077" x2="252.967" y2="116.077"/>
	<line fill="none" stroke="#8DC63F" stroke-miterlimit="10" x1="252.967" y1="116.077" x2="252.967" y2="96.638"/>
	<line fill="none" stroke="#8DC63F" stroke-miterlimit="10" x1="268.405" y1="185.058" x2="302.259" y2="185.058"/>
	<line fill="none" stroke="#8DC63F" stroke-miterlimit="10" x1="302.259" y1="185.058" x2="302.259" y2="160.74"/>
	<line fill="none" stroke="#8DC63F" stroke-miterlimit="10" x1="302.259" y1="160.74" x2="318.497" y2="160.74"/>
	<line fill="none" stroke="#8DC63F" stroke-miterlimit="10" x1="277.202" y1="212.26" x2="334.115" y2="212.26"/>
	<line fill="none" stroke="#8DC63F" stroke-miterlimit="10" x1="334.115" y1="212.26" x2="334.115" y2="238.393"/>
	<line fill="none" stroke="#8DC63F" stroke-miterlimit="10" x1="232.711" y1="232.365" x2="232.711" y2="309.836"/>
	<line fill="none" stroke="#8DC63F" stroke-miterlimit="10" x1="128.627" y1="293.535" x2="128.627" y2="245.895"/>
	<line fill="none" stroke="#8DC63F" stroke-miterlimit="10" x1="128.627" y1="245.895" x2="153.895" y2="245.895"/>
	<line fill="none" stroke="#8DC63F" stroke-miterlimit="10" x1="153.895" y1="245.895" x2="153.895" y2="232.365"/>
	<line fill="none" stroke="#8DC63F" stroke-miterlimit="10" x1="74.731" y1="207.701" x2="129.134" y2="207.701"/>
	<line fill="none" stroke="#8DC63F" stroke-miterlimit="10" x1="99.557" y1="127.815" x2="129.134" y2="127.815"/>
	<line fill="none" stroke="#8DC63F" stroke-miterlimit="10" x1="129.134" y1="127.815" x2="129.134" y2="172.899"/>
	<line fill="none" stroke="#8DC63F" stroke-miterlimit="10" x1="129.134" y1="172.899" x2="150.916" y2="172.899"/>
	<g>
		<circle fill="none" stroke="#8DC63F" stroke-width="0.681" stroke-miterlimit="10" cx="170.845" cy="76.412" r="1.985"/>
		<circle fill="none" stroke="#8DC63F" stroke-width="1.2219" stroke-miterlimit="10" cx="170.845" cy="76.412" r="3.562"/>
	</g>
	<g>
		<circle fill="none" stroke="#8DC63F" stroke-width="0.681" stroke-miterlimit="10" cx="252.966" cy="93.451" r="1.985"/>
		<circle fill="none" stroke="#8DC63F" stroke-width="1.2219" stroke-miterlimit="10" cx="252.967" cy="93.451" r="3.562"/>
	</g>
	<g>
		<circle fill="none" stroke="#8DC63F" stroke-width="0.681" stroke-miterlimit="10" cx="321.589" cy="160.558" r="1.985"/>
		<circle fill="none" stroke="#8DC63F" stroke-width="1.2219" stroke-miterlimit="10" cx="321.59" cy="160.558" r="3.562"/>
	</g>
	<g>
		<circle fill="none" stroke="#8DC63F" stroke-width="0.681" stroke-miterlimit="10" cx="232.522" cy="313.545" r="1.985"/>
		<circle fill="none" stroke="#8DC63F" stroke-width="1.2219" stroke-miterlimit="10" cx="232.523" cy="313.545" r="3.562"/>
	</g>
	<g>
		<circle fill="none" stroke="#8DC63F" stroke-width="0.681" stroke-miterlimit="10" cx="128.627" cy="296.916" r="1.985"/>
		<circle fill="none" stroke="#8DC63F" stroke-width="1.2219" stroke-miterlimit="10" cx="128.626" cy="296.916" r="3.562"/>
	</g>
	<g>
		<circle fill="none" stroke="#8DC63F" stroke-width="0.681" stroke-miterlimit="10" cx="71.068" cy="208.244" r="1.985"/>
		<circle fill="none" stroke="#8DC63F" stroke-width="1.2219" stroke-miterlimit="10" cx="71.068" cy="208.244" r="3.562"/>
	</g>
	<g>
		<circle fill="none" stroke="#8DC63F" stroke-width="0.681" stroke-miterlimit="10" cx="95.994" cy="127.934" r="1.986"/>
		<circle fill="none" stroke="#8DC63F" stroke-width="1.2219" stroke-miterlimit="10" cx="95.994" cy="127.934" r="3.562"/>
	</g>
</g>
</svg>
