<?xml version="1.0" encoding="utf-8"?>
<!-- Generator: Adobe Illustrator 16.0.4, SVG Export Plug-In . SVG Version: 6.00 Build 0)  -->
<!DOCTYPE svg PUBLIC "-//W3C//DTD SVG 1.1//EN" "http://www.w3.org/Graphics/SVG/1.1/DTD/svg11.dtd">
<svg version="1.1" id="Layer_1" xmlns="http://www.w3.org/2000/svg" xmlns:xlink="http://www.w3.org/1999/xlink" x="0px" y="0px"
	 width="182.819px" height="206.745px" viewBox="0 0 182.819 206.745" enable-background="new 0 0 182.819 206.745"
	 xml:space="preserve">
<g>
	<path fill-rule="evenodd" clip-rule="evenodd" fill="#059ACE" d="M11.804,206.504c-4.71-0.25-9.61-4.361-11.191-9.392
		C0.191,195.77,0,194.393,0,192.986C0,139.762,0,86.54,0.002,33.316c0-6.426,4.329-11.911,10.572-13.417
		c0.345-0.083,0.707-0.093,1.061-0.137c12.977,0,25.954,0.002,38.931-0.007c0.461,0,0.964,0.166,1.379-0.2
		c0.507-1.305,0.369-2.711,0.655-4.059c1.885-8.879,9.78-15.289,18.703-15.491c9.286-0.21,17.717,6.372,19.566,15.444
		c0.272,1.335,0.443,2.675,0.453,4.036c0.206,0.342,0.547,0.276,0.858,0.276c13.11-0.006,26.219-0.016,39.329-0.024
		c4.539,0.137,9.439,4.017,11.167,8.858c0.226,0.632,0.526,1.254,0.48,1.957c0,9.287,0,18.574-0.001,27.861
		c-0.692,4.168-4.954,7.791-9.306,7.909c-6.39,0.175-11.029-4.302-11.06-10.704c-0.021-4.668-0.002-9.336-0.008-14.003
		c-0.001-0.477-0.05-0.953-0.076-1.429c0.009-0.068,0.036-0.19,0.023-0.194c-0.105-0.035-0.218-0.067-0.328-0.067
		c-4.671-0.002-9.342-0.002-14.014-0.001c-0.278,0-0.566-0.021-0.748,0.26c-0.708,2.514-1.675,4.889-3.506,6.833
		c-2.52,2.675-5.588,4.371-9.262,4.392c-14.459,0.085-28.92,0.098-43.379,0.008c-6.041-0.038-11.26-4.41-12.746-10.288
		c-0.078-0.308-0.167-0.614-0.25-0.921c-0.275-0.431-0.714-0.278-1.09-0.279c-5.183-0.009-10.367-0.009-15.551,0
		c-0.376,0-0.814-0.152-1.092,0.275c-0.017,0.519-0.048,1.038-0.048,1.557c-0.002,47.574-0.003,95.149,0,142.723
		c0,0.519,0.032,1.038,0.049,1.557c0.447,0.526,1.051,0.27,1.575,0.27c39.597,0.014,79.194,0.013,118.791,0.013
		c0.32,0,0.645,0.033,0.959-0.006c0.862-0.109,1.088,0.283,1.076,1.099c-0.038,2.76-0.012,5.52-0.01,8.279
		c-0.487,4.563-4.82,9.244-9.779,10.548c-0.61,0.16-1.222,0.375-1.875,0.27c-0.48-0.01-0.96-0.028-1.438-0.028
		c-38.981-0.001-77.961-0.001-116.942,0C12.683,206.484,12.243,206.498,11.804,206.504z M71.76,10.851
		c-4.767-0.007-8.71,3.905-8.73,8.663c-0.02,4.787,4.019,8.831,8.764,8.774c4.752-0.056,8.683-4.019,8.676-8.748
		C80.464,14.789,76.524,10.858,71.76,10.851z"/>
	<path fill-rule="evenodd" clip-rule="evenodd" fill="#059ACE" d="M132.305,175.875c-27.928-0.005-50.473-22.597-50.491-50.535
		c-0.019-28.028,23.158-50.884,51.33-50.441c27.172,0.428,49.823,22.812,49.675,50.919
		C182.672,153.347,160.032,175.879,132.305,175.875z M125.704,134.954c-0.163-0.08-0.252-0.095-0.293-0.147
		c-1.962-2.522-3.924-5.045-5.878-7.572c-2.854-3.692-7.442-4.472-10.855-1.838c-3.527,2.722-3.964,7.24-1.035,11.036
		c4.416,5.726,8.847,11.439,13.279,17.15c3.585,4.618,10.222,4.064,12.875-1.185c7.535-14.907,14.988-29.854,22.465-44.791
		c0.753-1.504,1.033-3.106,0.704-4.771c-0.676-3.414-3.179-5.695-6.743-6.191c-2.865-0.399-6.013,1.408-7.491,4.355
		c-5.311,10.582-10.605,21.172-15.907,31.758C126.456,133.493,126.077,134.222,125.704,134.954z"/>
	<path fill-rule="evenodd" clip-rule="evenodd" fill="#059ACE" d="M37.552,88.723c0-3.8,0.025-7.599-0.02-11.398
		c-0.01-0.833,0.211-1.07,1.056-1.066c7.599,0.033,15.198,0.028,22.796,0.003c0.755-0.002,1.041,0.155,1.038,0.983
		c-0.031,7.639-0.03,15.277-0.001,22.917c0.003,0.805-0.249,0.988-1.018,0.985c-7.639-0.028-15.278-0.032-22.917,0.004
		c-0.85,0.004-0.954-0.309-0.948-1.03C37.567,96.322,37.552,92.522,37.552,88.723z M49.911,94.163c1.518,0,3.037-0.03,4.554,0.013
		c0.68,0.019,0.988-0.094,0.976-0.892c-0.049-3.076-0.034-6.153-0.009-9.229c0.005-0.652-0.165-0.916-0.871-0.908
		c-3.076,0.034-6.152,0.029-9.229,0.002c-0.612-0.005-0.833,0.148-0.827,0.796c0.031,3.156,0.035,6.312-0.001,9.468
		c-0.008,0.693,0.287,0.768,0.853,0.758C46.874,94.144,48.393,94.162,49.911,94.163z"/>
	<path fill-rule="evenodd" clip-rule="evenodd" fill="#059ACE" d="M37.551,124.884c0-3.796,0.023-7.593-0.018-11.389
		c-0.009-0.813,0.176-1.08,1.041-1.076c7.592,0.035,15.186,0.033,22.778,0.002c0.842-0.004,1.072,0.234,1.069,1.07
		c-0.03,7.592-0.029,15.185,0,22.777c0.003,0.831-0.219,1.078-1.066,1.074c-7.593-0.031-15.185-0.032-22.778,0.003
		c-0.86,0.004-1.054-0.253-1.044-1.072C37.575,132.478,37.551,128.681,37.551,124.884z M55.423,124.971
		c0-1.558-0.021-3.115,0.01-4.671c0.013-0.646-0.155-0.919-0.867-0.91c-3.074,0.034-6.148,0.026-9.222,0.003
		c-0.595-0.005-0.847,0.124-0.84,0.788c0.032,3.153,0.025,6.308,0.004,9.461c-0.003,0.549,0.127,0.771,0.726,0.767
		c3.154-0.026,6.308-0.026,9.461-0.001c0.597,0.005,0.745-0.218,0.736-0.767C55.406,128.085,55.422,126.528,55.423,124.971z"/>
	<path fill-rule="evenodd" clip-rule="evenodd" fill="#059ACE" d="M37.552,161.127c0-3.796,0.022-7.593-0.018-11.389
		c-0.009-0.808,0.166-1.086,1.037-1.082c7.592,0.036,15.185,0.034,22.777,0.003c0.839-0.004,1.075,0.229,1.072,1.068
		c-0.03,7.593-0.029,15.185,0,22.777c0.003,0.822-0.205,1.086-1.061,1.082c-7.593-0.033-15.186-0.034-22.778,0
		c-0.856,0.004-1.058-0.247-1.049-1.071C37.576,168.72,37.552,164.924,37.552,161.127z M50.019,155.641
		c-1.519,0-3.04,0.035-4.557-0.015c-0.709-0.023-0.973,0.138-0.961,0.913c0.046,3.037,0.038,6.077,0.004,9.115
		c-0.007,0.694,0.121,0.98,0.906,0.968c3.038-0.047,6.077-0.033,9.116-0.007c0.641,0.005,0.928-0.134,0.921-0.85
		c-0.032-3.078-0.039-6.157,0.002-9.235c0.01-0.79-0.305-0.924-0.993-0.903C52.979,155.672,51.498,155.641,50.019,155.641z"/>
	<path fill-rule="evenodd" clip-rule="evenodd" fill="#059ACE" d="M143.157,195.695c-0.002-2.76-0.028-5.52,0.01-8.279
		c0.012-0.815-0.214-1.208-1.076-1.099c-0.314,0.039-0.639,0.006-0.959,0.006c-39.597,0-79.194,0.001-118.791-0.013
		c-0.524,0-1.128,0.257-1.575-0.27c40.417,0,80.834-0.001,121.251,0.004c1.684,0,1.517-0.244,1.499,1.551
		c-0.022,2.316,0.125,4.637-0.105,6.95C143.371,194.938,143.421,195.351,143.157,195.695z"/>
	<path fill-rule="evenodd" clip-rule="evenodd" fill="#059ACE" d="M11.804,206.504c0.439-0.007,0.879-0.021,1.319-0.021
		c38.98-0.001,77.961-0.001,116.942,0c0.479,0,0.958,0.019,1.438,0.028c-0.508,0.332-1.082,0.211-1.627,0.211
		c-38.73,0.008-77.46,0.007-116.19,0.002C13.054,206.725,12.403,206.813,11.804,206.504z"/>
	<path fill-rule="evenodd" clip-rule="evenodd" fill="#059ACE" d="M143.156,58.413c0.001-9.287,0.001-18.574,0.001-27.861
		c0.378,0.904,0.354,1.869,0.356,2.814c0.017,7.491,0.014,14.983,0,22.475C143.513,56.708,143.542,57.593,143.156,58.413z"/>
	<path fill-rule="evenodd" clip-rule="evenodd" fill="#059ACE" d="M51.946,19.555c-0.416,0.366-0.918,0.199-1.379,0.2
		c-12.977,0.01-25.954,0.007-38.931,0.007c0.563-0.26,1.167-0.243,1.762-0.243c12.691-0.005,25.381-0.004,38.072-0.002
		C51.628,19.518,51.787,19.542,51.946,19.555z"/>
	<path fill-rule="evenodd" clip-rule="evenodd" fill="#059ACE" d="M131.51,19.737c-13.109,0.008-26.219,0.018-39.329,0.024
		c-0.312,0-0.653,0.066-0.858-0.276c12.732,0.01,25.464,0.018,38.197,0.037C130.186,19.523,130.877,19.39,131.51,19.737z"/>
	<path fill-rule="evenodd" clip-rule="evenodd" fill="#059ACE" d="M20.766,40.204c0.278-0.427,0.716-0.275,1.092-0.275
		c5.184-0.009,10.368-0.009,15.551,0c0.376,0,0.814-0.152,1.09,0.279C32.587,40.207,26.677,40.206,20.766,40.204z"/>
	<path fill-rule="evenodd" clip-rule="evenodd" fill="#059ACE" d="M107.641,40.183c0.182-0.281,0.47-0.26,0.748-0.26
		c4.672,0,9.343-0.001,14.014,0.001c0.11,0,0.223,0.032,0.328,0.067c0.013,0.004-0.015,0.126-0.023,0.194
		C117.685,40.185,112.662,40.184,107.641,40.183z"/>
	<path fill-rule="evenodd" clip-rule="evenodd" fill="#059ACE" d="M54.457,155.627c0.688-0.021,1.003,0.113,0.993,0.903
		c-0.041,3.078-0.035,6.157-0.002,9.235c0.007,0.716-0.28,0.854-0.921,0.85"/>
	<path fill-rule="evenodd" clip-rule="evenodd" fill="#059ACE" d="M45.411,166.623c-0.785,0.013-0.913-0.273-0.906-0.968
		c0.033-3.038,0.042-6.078-0.004-9.115c-0.012-0.775,0.252-0.937,0.961-0.913"/>
</g>
</svg>
