<?xml version="1.0" encoding="utf-8"?>
<!-- Generator: Adobe Illustrator 16.0.4, SVG Export Plug-In . SVG Version: 6.00 Build 0)  -->
<!DOCTYPE svg PUBLIC "-//W3C//DTD SVG 1.1//EN" "http://www.w3.org/Graphics/SVG/1.1/DTD/svg11.dtd">
<svg version="1.1" xmlns="http://www.w3.org/2000/svg" xmlns:xlink="http://www.w3.org/1999/xlink" x="0px" y="0px" width="712px"
	 height="250px" viewBox="0 0 712 250" enable-background="new 0 0 712 250" xml:space="preserve">
<g id="Layer_1">
	<g>
		<path fill-rule="evenodd" clip-rule="evenodd" fill="#5B9ACC" d="M68.122,94.655c-0.1-5.742-0.391-11.493,0.11-17.211
			c0.607-6.894,4.616-10.635,11.905-11.448c9.616-1.073,19.253-1.911,28.857-3.145c10.405-1.339,20.802-2.806,31.259-3.704
			c8.008-0.688,15.958-1.854,23.937-2.782c3.711-0.434,7.413-0.991,11.136-1.251c4.576-0.318,8.802,0.713,11.939,4.357
			c1.997,2.324,2.843,5.181,3.032,8.208c0.108,1.739,0.115,3.485,0.115,5.228c0.002,28.047-0.007,56.098-0.01,84.143
			c0,3.04-0.274,6.042-1.243,8.937c-0.937,2.792-2.511,5.311-4.982,6.828c-2.256,1.384-5.011,1.745-7.697,1.807
			c-3.035,0.066-6.013-0.483-8.999-0.925c-9.078-1.343-17.882-3.979-26.886-5.612c-4.127-0.75-8.19-1.811-12.332-2.467
			c0.005-2.762,0.005-5.522,0.005-8.287c1.359,0.241,2.71,0.516,4.072,0.724c9.096,1.378,18.109,3.252,27.269,4.244
			c4.467,0.483,8.828,1.778,13.347,1.949c3.933,0.152,5.613-1.291,6.14-5.151c0.083-0.607,0.234-1.213,0.236-1.82
			c0.014-9.271,0.004-18.541,0.002-27.81c0-0.205,0-0.415,0.002-0.623c0.22-2.254,0.119-4.513,0.023-6.768
			c-0.016-0.209-0.032-0.422-0.05-0.63c0.002-3.586,0.007-7.167,0.012-10.75c0.007-0.316,0.013-0.625,0.022-0.937
			c0.105-0.709,0.132-1.423-0.044-2.126c-0.004-0.222-0.004-0.442-0.01-0.663c0.022-0.304,0.068-0.607,0.068-0.914
			c-0.009-11.23-0.016-22.46-0.048-33.69c-0.002-0.919-0.22-1.833-0.251-2.752c-0.105-3.136-2.952-4.283-5.261-4.008
			c-2.641,0.311-5.297,0.507-7.947,0.74c-6.48,0.563-12.964,1.101-19.445,1.673c-7.398,0.654-14.791,1.377-22.192,1.983
			c-6.268,0.509-12.553,0.832-18.824,1.344c-8.013,0.654-16.011,1.453-24.021,2.118c-4.173,0.346-6.008,2.132-6.049,6.349
			c-0.048,4.922,0,9.848,0.007,14.768C72.926,94.604,70.521,94.627,68.122,94.655z"/>
		<path fill-rule="evenodd" clip-rule="evenodd" fill="#336FB7" d="M68.122,94.655c2.4-0.028,4.804-0.051,7.204-0.073
			c1.069-0.035,2.143-0.073,3.217-0.095c8.552-0.193,17.102-0.398,25.651-0.563c3.478-0.069,6.97-0.344,10.43,0.201
			c6.058,0.952,10.687,3.83,12.561,9.974c0.832,2.738,1.01,5.641,1.022,8.511c0.043,14.905,0.043,29.815,0.062,44.72
			c0,2.765,0,5.525-0.005,8.287c-0.185,3.93,0.087,7.861-0.519,11.797c-0.784,5.129-4.256,8.008-8.947,8.969
			c-2.766,0.565-5.515,0.27-8.213-0.396c-7.245-1.783-14.338-4.127-21.542-6.06c-7.012-1.885-13.953-3.986-20.907-6.059
			c-1.168-0.35-2.402-0.492-3.606-0.728c0-2.133,0-4.27,0.004-6.404c6.138,1.109,12.241,2.394,18.277,3.978
			c7.521,1.972,15.234,3.087,22.746,5.118c2.758,0.743,5.575,1.308,8.392,1.812c2.139,0.381,3.833-0.794,4.424-2.883
			c0.25-0.883,0.38-1.788,0.38-2.725c-0.014-19.221-0.014-38.438-0.014-57.659c0-0.923,0.066-1.852-0.023-2.77
			c-0.558-5.846-2.376-8.584-8.798-8.609c-5.686-0.02-11.372-0.166-17.058-0.253c-7.07-0.109-14.137-0.209-21.204-0.318
			c-0.212-0.001-0.425-0.001-0.635-0.001c-0.201-0.032-0.405-0.091-0.603-0.098c-5.775-0.158-11.548-0.33-17.318-0.46
			c-4.137-0.092-6.022,1.705-5.997,5.745c0.019,3.781,0.12,7.565,0.183,11.344c-2.022-0.424-4.119,0.006-6.134-0.516
			c0-4.1,0.104-8.204-0.03-12.302c-0.248-7.65,5.521-10.984,11.173-11.099C57.567,94.93,62.845,94.783,68.122,94.655z"/>
		<path fill-rule="evenodd" clip-rule="evenodd" fill="#23549C" d="M64.533,166.736c-0.004,2.135-0.004,4.271-0.004,6.404
			c-0.035,1.791-0.156,3.585-0.087,5.368c0.274,7.066-7.048,12.463-13.893,10.091c-2.464-0.855-4.907-1.778-7.329-2.746
			c-3.081-1.229-6.258-2.211-9.397-3.243c-5.458-1.783-7.754-5.669-8.328-10.962c-0.542-5.005-0.211-10.038-0.238-15.056
			c-0.05-9.578,0.033-19.156-0.039-28.735c-0.029-3.875,1.522-6.699,4.912-8.521c1.911-1.023,3.99-1.207,6.111-1.115
			c1.638,0.073,3.272,0.146,4.909,0.219c2.015,0.522,4.111,0.092,6.134,0.516c0.996,0.037,1.988,0.074,2.984,0.11
			c0.22,0.179,0.466,0.174,0.72,0.091c0.626,0.042,1.25,0.083,1.876,0.124c2.836,0.53,5.436,1.578,7.672,3.441
			c0.195,0.208,0.387,0.419,0.583,0.626c0.433,0.596,0.865,1.193,1.296,1.793c0.948,2.002,1.855,4.012,1.887,6.293
			c0.007,0.216,0.012,0.434,0.02,0.655c0.037,0.661,0.108,1.324,0.108,1.986c0.007,10.38,0.002,20.758,0.007,31.138
			C64.438,165.722,64.497,166.229,64.533,166.736z M56.146,155.229c-0.013,0-0.028,0-0.043,0c0-7.275,0.075-14.557-0.031-21.834
			c-0.059-3.811-1.508-5.588-5.187-6.338c-5.161-1.055-10.431-1.389-15.669-1.846c-2.486-0.219-3.624,1.091-3.624,3.657
			c-0.011,13.479-0.014,26.959-0.014,40.441c0.002,4.028,1.645,6.326,5.48,7.486c4.695,1.426,9.411,2.774,14.124,4.141
			c0.537,0.159,1.099,0.271,1.659,0.321c1.384,0.123,2.349-0.433,2.861-1.78c0.449-1.188,0.434-2.412,0.439-3.637
			C56.155,168.971,56.146,162.099,56.146,155.229z"/>
	</g>
	
		<text transform="matrix(1 0 0 1 218.7588 168.3506)" fill="#303030" stroke="#58595B" stroke-width="1.131" stroke-miterlimit="10" font-family="'HighlandGothicLightFLF'" font-size="106.8159">HandyTec</text>
</g>
<g id="Layer_2">
	<text transform="matrix(1 0 0 1 403.5166 219.167)" fill="#3F403F" font-family="'StainyPersonalUseOnly'" font-size="39">innovating your business</text>
</g>
</svg>
