<?xml version="1.0" encoding="utf-8"?>
<!-- Generator: Adobe Illustrator 16.0.4, SVG Export Plug-In . SVG Version: 6.00 Build 0)  -->
<!DOCTYPE svg PUBLIC "-//W3C//DTD SVG 1.1//EN" "http://www.w3.org/Graphics/SVG/1.1/DTD/svg11.dtd">
<svg version="1.1" xmlns="http://www.w3.org/2000/svg" xmlns:xlink="http://www.w3.org/1999/xlink" x="0px" y="0px"
	 width="306.667px" height="196px" viewBox="0 0 306.667 196" enable-background="new 0 0 306.667 196" xml:space="preserve">
<g id="fondo" display="none">
	
		<rect x="-42.334" y="-64.333" display="inline" fill-rule="evenodd" clip-rule="evenodd" fill="#2DABE2" width="400" height="400"/>
</g>
<g id="Logos">
	<g>
		<path fill="#E9F6F9" d="M157.693,82.552c-8.085,0-16.169-0.001-24.254,0.001c-0.541,0-0.48-0.069-0.48,0.475
			c-0.001,12.053,0.007,24.104-0.013,36.157c-0.002,1.178,0.343,2.181,1.08,3.061c0.945,1.128,2.075,1.851,3.643,1.786
			c1.594-0.065,3.193-0.004,4.791-0.023c0.34-0.004,0.407,0.101,0.406,0.42c-0.01,3.979-0.006,7.959-0.007,11.939
			c0,1.203,0.212,2.351,0.809,3.415c1.747,3.118,5.715,3.676,8.13,1.119c1.152-1.22,1.627-2.704,1.622-4.373
			c-0.013-4.042,0-8.084-0.011-12.127c0-0.313,0.086-0.393,0.395-0.392c2.558,0.012,5.116,0.016,7.672-0.002
			c0.365-0.003,0.449,0.093,0.449,0.452c-0.014,4.042-0.005,8.084-0.013,12.127c-0.002,0.872,0.141,1.71,0.466,2.519
			c1.332,3.319,5.145,4.465,7.873,2.332c1.547-1.209,2.234-2.862,2.236-4.808c0.004-4.055,0.006-8.109-0.006-12.164
			c-0.002-0.349,0.063-0.464,0.439-0.459c1.723,0.022,3.443,0.011,5.166,0.008c0.186,0,0.373-0.012,0.558-0.039
			c1.772-0.261,3.747-2.611,3.741-4.469c-0.039-12.164-0.021-24.328-0.012-36.493c0-0.368-0.076-0.473-0.463-0.472
			C173.837,82.555,165.765,82.552,157.693,82.552z M195.777,98.658c0-3.631-0.008-7.262,0.004-10.893
			c0.003-1.12-0.217-2.177-0.756-3.163c-1.514-2.77-4.78-3.67-7.273-1.961c-1.713,1.173-2.52,2.882-2.527,4.922
			c-0.024,7.387-0.012,14.773-0.006,22.16c0,1.038,0.255,2.023,0.748,2.941c1.645,3.056,5.346,3.778,7.888,1.503
			c1.337-1.196,1.923-2.756,1.923-4.542C195.775,105.969,195.777,102.314,195.777,98.658z"/>
		<path fill-rule="evenodd" clip-rule="evenodd" fill="#E9F6F9" d="M173.304,52.152c0.355,0.373,0.361,0.441,0.097,0.902
			c-1.28,2.225-2.562,4.45-3.841,6.676c-0.24,0.418-0.238,0.414,0.209,0.647c4.259,2.219,7.636,5.358,9.933,9.601
			c1.575,2.909,2.408,6.023,2.462,9.34c0.006,0.315-0.078,0.391-0.388,0.391c-16.081-0.007-32.161-0.007-48.242,0
			c-0.292,0-0.376-0.069-0.37-0.369c0.109-4.828,1.757-9.084,4.778-12.821c2.099-2.598,4.67-4.621,7.636-6.149
			c0.433-0.224,0.433-0.221,0.201-0.624c-1.285-2.237-2.571-4.474-3.854-6.712c-0.254-0.443-0.225-0.579,0.16-0.881
			c0.1,0,0.199,0,0.299,0c0.181,0.14,0.293,0.33,0.405,0.524c1.309,2.266,2.623,4.528,3.926,6.797
			c0.123,0.213,0.219,0.271,0.461,0.167c4.124-1.766,8.423-2.428,12.891-2.036c2.776,0.243,5.447,0.902,8.007,2.002
			c0.288,0.125,0.42,0.097,0.579-0.184c0.953-1.68,1.918-3.353,2.896-5.018c0.446-0.759,0.818-1.564,1.379-2.253
			C173.054,52.152,173.179,52.152,173.304,52.152z M146.027,71.624c1.282-0.004,2.322-1.028,2.324-2.288
			c0.001-1.264-1.072-2.338-2.336-2.339c-1.268-0.001-2.336,1.064-2.34,2.332C143.671,70.602,144.724,71.628,146.027,71.624z
			 M169.332,71.625c1.289-0.003,2.318-1.015,2.322-2.283c0.003-1.288-1.078-2.362-2.359-2.346c-1.277,0.018-2.301,1.073-2.291,2.364
			C167.011,70.637,168.029,71.626,169.332,71.625z"/>
		<path fill-rule="evenodd" clip-rule="evenodd" fill="#E9F6F9" d="M119.55,86.889c0.075-0.324,0.131-0.653,0.229-0.971
			c0.65-2.108,1.938-3.595,4.171-4.042c2.033-0.406,4.005,0.526,5.186,2.357c0.623,0.967,0.965,2.029,0.967,3.176
			c0.009,7.484,0.014,14.969-0.001,22.454c-0.004,2.418-1.541,4.617-3.676,5.368c-2.262,0.796-4.786-0.211-6.042-2.415
			c-0.412-0.723-0.686-1.491-0.774-2.322c-0.006-0.06-0.039-0.115-0.06-0.173C119.55,102.511,119.55,94.7,119.55,86.889z"/>
		<path fill-rule="evenodd" clip-rule="evenodd" fill="#E9F6F9" d="M157.693,82.552c8.072,0,16.144,0.003,24.216-0.01
			c0.387-0.001,0.463,0.104,0.463,0.472c-0.01,12.165-0.027,24.329,0.012,36.493c0.006,1.857-1.969,4.208-3.741,4.469
			c-0.185,0.027-0.372,0.039-0.558,0.039c-1.723,0.003-3.443,0.015-5.166-0.008c-0.376-0.005-0.441,0.11-0.439,0.459
			c0.012,4.055,0.01,8.109,0.006,12.164c-0.002,1.945-0.689,3.599-2.236,4.808c-2.729,2.133-6.541,0.987-7.873-2.332
			c-0.325-0.809-0.468-1.646-0.466-2.519c0.008-4.043-0.001-8.085,0.013-12.127c0-0.359-0.084-0.455-0.449-0.452
			c-2.557,0.018-5.115,0.014-7.672,0.002c-0.308-0.001-0.395,0.078-0.395,0.392c0.011,4.043-0.001,8.085,0.011,12.127
			c0.005,1.669-0.47,3.153-1.622,4.373c-2.415,2.557-6.383,1.999-8.13-1.119c-0.596-1.064-0.809-2.212-0.809-3.415
			c0.001-3.98-0.003-7.96,0.007-11.939c0.001-0.319-0.065-0.424-0.406-0.42c-1.597,0.02-3.196-0.042-4.791,0.023
			c-1.568,0.064-2.698-0.658-3.643-1.786c-0.737-0.88-1.082-1.883-1.08-3.061c0.021-12.053,0.012-24.104,0.013-36.157
			c0-0.544-0.061-0.475,0.48-0.475C141.524,82.551,149.608,82.552,157.693,82.552z"/>
		<path fill-rule="evenodd" clip-rule="evenodd" fill="#E9F6F9" d="M195.777,98.658c0,3.656-0.002,7.312,0,10.968
			c0,1.786-0.586,3.346-1.923,4.542c-2.542,2.275-6.243,1.553-7.888-1.503c-0.493-0.918-0.748-1.903-0.748-2.941
			c-0.006-7.387-0.019-14.773,0.006-22.16c0.008-2.04,0.814-3.749,2.527-4.922c2.493-1.709,5.76-0.809,7.273,1.961
			c0.539,0.986,0.759,2.043,0.756,3.163C195.769,91.396,195.777,95.027,195.777,98.658z"/>
	</g>
	<g>
		<path fill-rule="evenodd" clip-rule="evenodd" fill="#E9F6F9" d="M75.949,106.583c6.66,0,13.321,0,19.982,0.001
			c0.232,0,0.465,0.01,0.698-0.002c0.338-0.017,0.474,0.141,0.457,0.469c-0.012,0.203-0.001,0.407-0.001,0.61
			c0,11.577,0,23.153,0,34.729c0,0.029,0,0.058,0,0.087c-0.002,1.008,0.001,0.987-1.014,0.837c-2.987-0.445-5.976-0.871-8.963-1.306
			c-3.447-0.503-6.893-1.009-10.34-1.509c-2.959-0.431-5.918-0.854-8.877-1.283c-3.446-0.5-6.892-1.005-10.338-1.506
			c-0.632-0.093-1.265-0.18-1.898-0.265c-0.811-0.109-0.812-0.107-0.82-0.887c-0.001-0.116,0-0.232,0-0.349
			c0-9.482,0-18.965,0-28.446c0-0.175-0.004-0.35,0-0.524c0.016-0.644,0.018-0.654,0.698-0.655
			c3.781-0.004,7.562-0.002,11.343-0.002C69.898,106.583,72.923,106.583,75.949,106.583z"/>
		<path fill-rule="evenodd" clip-rule="evenodd" fill="#E9F6F9" d="M96.965,65.93c0.188,0.308,0.115,0.605,0.115,0.889
			c0.004,11.662,0.004,23.325,0.002,34.987c0,0.99,0.111,0.937-0.941,0.938c-12.36,0-24.721,0-37.082,0
			c-1.105,0-2.21,0.003-3.315-0.001c-0.981-0.003-0.909,0.093-0.913-0.87c-0.002-0.553,0-1.105,0-1.658c0-9.017,0-18.032,0-27.047
			c0-0.204,0.019-0.409-0.004-0.61c-0.046-0.419,0.159-0.537,0.545-0.591c2.328-0.323,4.653-0.671,6.978-1.012
			c3.474-0.508,6.948-1.021,10.423-1.526c3.39-0.492,6.78-0.974,10.17-1.466c3.792-0.551,7.582-1.11,11.374-1.663
			C95.204,66.17,96.092,66.052,96.965,65.93z"/>
		<path fill-rule="evenodd" clip-rule="evenodd" fill="#E9F6F9" d="M51.221,136.791c-1.529-0.216-2.937-0.409-4.343-0.613
			c-2.641-0.384-5.281-0.772-7.922-1.159c-3.443-0.504-6.887-1.01-10.332-1.511c-2.583-0.375-5.167-0.744-7.752-1.112
			c-0.713-0.102-0.727-0.094-0.728-0.783c-0.003-8.114-0.003-16.228,0-24.342c0-0.677,0.013-0.685,0.756-0.685
			c4.1-0.003,8.201-0.002,12.301-0.002c5.613,0,11.225,0,16.838,0c0.174,0,0.349-0.003,0.524,0.001
			c0.633,0.016,0.634,0.017,0.655,0.611c0.005,0.146,0.001,0.292,0.001,0.436c0,9.365,0,18.729,0,28.093
			C51.221,136.041,51.221,136.356,51.221,136.791z"/>
		<path fill-rule="evenodd" clip-rule="evenodd" fill="#E9F6F9" d="M35.68,102.744c-4.857,0-9.714,0-14.571-0.001
			c-1.097,0-0.964,0.067-0.965-0.999c-0.002-7.882-0.001-15.763-0.001-23.646c0-0.174,0.014-0.351-0.003-0.523
			c-0.037-0.378,0.156-0.497,0.502-0.542c1.15-0.152,2.297-0.331,3.446-0.499c3.848-0.565,7.696-1.132,11.546-1.692
			c3.39-0.492,6.782-0.975,10.172-1.464c1.408-0.204,2.815-0.416,4.222-0.624c0.202-0.03,0.403-0.061,0.605-0.075
			c0.562-0.041,0.564-0.038,0.585,0.544c0.006,0.174,0.001,0.349,0.001,0.524c0,9.306,0,18.614,0,27.92
			c0,0.204-0.012,0.407,0.001,0.61c0.021,0.326-0.103,0.49-0.448,0.466c-0.203-0.013-0.407,0-0.61,0
			C45.335,102.744,40.508,102.744,35.68,102.744z"/>
	</g>
	<g>
		<path fill-rule="evenodd" clip-rule="evenodd" fill="#E9F6F9" d="M238.608,74.129c3.279-0.05,5.94,0.947,8.599,1.962
			c1.85,0.707,3.642,1.578,5.635,1.876c1.041,0.156,1.999-0.1,2.951-0.408c2.511-0.815,4.886-2.013,7.432-2.725
			c8.36-2.334,15.634-0.461,21.751,5.73c0.51,0.515,0.907,1.141,1.375,1.698c0.329,0.39,0.299,0.61-0.156,0.923
			c-3.146,2.169-5.613,4.933-7.267,8.402c-3.311,6.946-1.978,15.806,3.214,21.481c1.822,1.993,3.925,3.593,6.364,4.74
			c0.517,0.243,0.469,0.535,0.326,0.963c-1.367,4.102-3.212,7.973-5.598,11.58c-1.874,2.831-3.754,5.663-6.227,8.028
			c-1.469,1.403-3.113,2.544-5.096,3.119c-2.538,0.732-5.021,0.456-7.459-0.454c-1.954-0.729-3.798-1.751-5.837-2.242
			c-3.797-0.917-7.476-0.498-11.056,1.029c-1.869,0.798-3.723,1.612-5.747,2.012c-3.179,0.627-5.838-0.396-8.257-2.33
			c-2.442-1.952-4.287-4.434-6.107-6.941c-5.099-7.02-8.337-14.833-9.885-23.34c-1.185-6.506-1.25-13.004,0.918-19.354
			c1.958-5.735,5.463-10.243,10.813-13.242C231.969,75.14,235.685,74.137,238.608,74.129z"/>
		<path fill-rule="evenodd" clip-rule="evenodd" fill="#E9F6F9" d="M270.645,54.057c-0.095,4.696-1.715,8.837-4.667,12.457
			c-2.557,3.137-5.773,5.267-9.755,6.164c-0.911,0.204-1.834,0.26-2.769,0.269c-0.556,0.007-0.735-0.188-0.766-0.737
			c-0.177-3.308,0.651-6.38,2.158-9.286c2.438-4.696,6.204-7.896,11.129-9.769c1.321-0.502,2.697-0.774,4.091-0.988
			c0.403-0.062,0.574,0.067,0.577,0.457C270.647,53.101,270.645,53.578,270.645,54.057z"/>
	</g>
</g>
</svg>
